HIERARCHY
ROOT Hips
{
    OFFSET 0.000000 0.000000 0.000000
    CHANNELS 6 Xposition Yposition Zposition Zrotation Xrotation Yrotation
    JOINT Spine
    {
        OFFSET -0.000000 14.517291 0.000000
        CHANNELS 3 Zrotation Xrotation Yrotation
        JOINT Spine1
        {
            OFFSET -0.000000 37.558300 0.000000
            CHANNELS 3 Zrotation Xrotation Yrotation
            JOINT Neck
            {
                OFFSET -0.000000 37.404057 3.400369
                CHANNELS 3 Zrotation Xrotation Yrotation
                JOINT Head
                {
                    OFFSET -0.000000 24.785618 -3.540803
                    CHANNELS 3 Zrotation Xrotation Yrotation
                    End Site
                    {
                        OFFSET -0.000000 35.408028 0.000000
                    }
                }
            }
            JOINT LeftShoulder
            {
                OFFSET 6.992933 33.973492 -0.192664
                CHANNELS 3 Zrotation Xrotation Yrotation
                JOINT LeftArm
                {
                    OFFSET 21.527611 0.000000 0.000000
                    CHANNELS 3 Zrotation Xrotation Yrotation
                    JOINT LeftForeArm
                    {
                        OFFSET 56.353916 0.000000 0.000000
                        CHANNELS 3 Zrotation Xrotation Yrotation
                        JOINT LeftHand
                        {
                            OFFSET 47.774071 0.000000 0.000000
                            CHANNELS 3 Zrotation Xrotation Yrotation
                            End Site
                            {
                                OFFSET 26.556021 0.000000 0.000000
                            }
                        }
                    }
                }
            }
            JOINT RightShoulder
            {
                OFFSET -7.065357 33.973492 -0.192664
                CHANNELS 3 Zrotation Xrotation Yrotation
                JOINT RightArm
                {
                    OFFSET -21.527611 0.000000 0.000000
                    CHANNELS 3 Zrotation Xrotation Yrotation
                    JOINT RightForeArm
                    {
                        OFFSET -56.353916 0.000000 0.000000
                        CHANNELS 3 Zrotation Xrotation Yrotation
                        JOINT RightHand
                        {
                            OFFSET -47.774071 0.000000 0.000000
                            CHANNELS 3 Zrotation Xrotation Yrotation
                            End Site
                            {
                                OFFSET -26.556021 0.000000 0.000000
                            }
                        }
                    }
                }
            }
        }
    }
    JOINT LeftUpLeg
    {
        OFFSET 17.704014 0.000000 0.000000
        CHANNELS 3 Zrotation Xrotation Yrotation
        JOINT LeftLeg
        {
            OFFSET -0.000000 -81.181816 0.000000
            CHANNELS 3 Zrotation Xrotation Yrotation
            JOINT LeftFoot
            {
                OFFSET -0.000000 -62.821102 0.000000
                CHANNELS 3 Zrotation Xrotation Yrotation
                JOINT LeftToeBase
                {
                    OFFSET -0.000000 -11.507608 26.556021
                    CHANNELS 3 Zrotation Xrotation Yrotation
                    End Site
                    {
                        OFFSET -0.000000 0.000000 7.081605
                    }
                }
            }
        }
    }
    JOINT RightUpLeg
    {
        OFFSET -17.704014 0.000000 0.000000
        CHANNELS 3 Zrotation Xrotation Yrotation
        JOINT RightLeg
        {
            OFFSET -0.000000 -81.181816 0.000000
            CHANNELS 3 Zrotation Xrotation Yrotation
            JOINT RightFoot
            {
                OFFSET -0.000000 -62.821102 0.000000
                CHANNELS 3 Zrotation Xrotation Yrotation
                JOINT RightToeBase
                {
                    OFFSET -0.000000 -11.507608 26.556021
                    CHANNELS 3 Zrotation Xrotation Yrotation
                    End Site
                    {
                        OFFSET -0.000000 0.000000 7.081605
                    }
                }
            }
        }
    }
}
MOTION
Frames:    10
Frame Time:    0.008333
28.507048    166.288300    -60.294472    -4.192361    1.161748    30.455847    1.584774    -3.238900    -3.309044    -9.625908    -4.512716    -1.497332    14.475927    0.753476    0.962021    3.327457    -1.709884    -0.540691    13.821251    -4.572371    -15.415968    -25.520422    -26.475525    -39.884884    -13.241615    -40.200726    -97.035446    -33.221119    -42.650890    -38.147606    -14.050052    -0.857554    -8.899176    18.930151    18.489462    12.151499    14.197230    15.302391    -1.171388    9.130486    16.543497    14.262455    16.662458    8.872715    1.590036    -6.975730    10.303024    -14.869440    -17.798363    -12.376862    38.599205    0.000000    0.000000    0.000000    -2.756629    -10.723499    -3.876419    5.343236    5.119041    -7.560393    -0.941410    7.735235    -15.861431    0.000000    0.000000    0.000000    
28.576637    166.282166    -60.346073    -4.177033    1.148345    30.460571    1.588802    -3.229553    -3.322756    -9.625447    -4.494416    -1.500345    14.503954    0.758409    0.965002    3.345082    -1.699315    -0.538559    13.833117    -4.579724    -15.418427    -25.504845    -26.455778    -39.871174    -13.242778    -40.229630    -97.067513    -33.252140    -42.669697    -38.178734    -14.027977    -0.867115    -8.908850    18.955894    18.493519    12.144373    14.195184    15.216698    -1.220392    8.898679    16.449215    14.434226    16.633404    8.925871    1.624792    -6.989632    10.229860    -14.819732    -17.807173    -12.384293    38.547291    0.000000    0.000000    0.000000    -2.787797    -10.706562    -3.803141    5.336790    5.105586    -7.594316    -0.919372    7.754768    -15.907704    0.000000    0.000000    0.000000    
28.641472    166.276672    -60.393578    -4.158422    1.144406    30.455971    1.573767    -3.228701    -3.329609    -9.602758    -4.485061    -1.500868    14.165780    0.740365    0.892534    3.841613    -1.644665    -0.491134    13.821130    -4.577618    -15.436659    -25.455898    -26.411610    -39.835766    -13.234643    -40.296978    -97.097176    -33.262180    -42.726685    -38.195137    -14.015689    -0.854545    -8.915241    18.991209    18.531258    12.137238    14.144172    15.161882    -1.194338    8.955163    16.394316    14.386005    16.601271    8.978798    1.654246    -7.008527    10.152259    -14.781933    -17.781597    -12.352747    38.478653    0.000000    0.000000    0.000000    -2.823698    -10.697330    -3.727619    5.328824    5.099566    -7.628181    -0.918977    7.763687    -15.933230    0.000000    0.000000    0.000000    
28.705585    166.275116    -60.442139    -4.146580    1.148285    30.442087    1.554684    -3.238439    -3.334820    -9.579545    -4.471905    -1.500464    14.171240    0.742551    0.889532    3.880695    -1.612758    -0.489690    13.826991    -4.570703    -15.437144    -25.440388    -26.381691    -39.827930    -13.212185    -40.343395    -97.117233    -33.306351    -42.731682    -38.243866    -13.992253    -0.863496    -8.913528    19.008308    18.526358    12.133845    14.127371    15.225255    -1.155905    9.205833    16.467205    14.183501    16.571712    9.005271    1.723508    -7.024149    10.123686    -14.792418    -17.715921    -12.292265    38.390709    0.000000    0.000000    0.000000    -2.855597    -10.702868    -3.649348    5.325356    5.097266    -7.659705    -0.912030    7.782302    -15.978846    0.000000    0.000000    0.000000    
28.768635    166.277451    -60.491093    -4.131810    1.159228    30.433201    1.523468    -3.242875    -3.340797    -9.542376    -4.464005    -1.500038    14.170623    0.724442    0.885952    3.913499    -1.565874    -0.492021    13.827641    -4.561308    -15.428813    -25.446484    -26.376650    -39.842300    -13.209565    -40.354828    -97.145714    -33.267319    -42.763390    -38.218307    -13.984797    -0.854831    -8.945065    19.012714    18.492874    12.172376    14.183508    15.239035    -1.168586    9.168001    16.481762    14.226116    16.530899    9.009848    1.774926    -7.029239    10.122026    -14.832671    -17.675989    -12.296792    38.391857    0.000000    0.000000    0.000000    -2.895280    -10.710485    -3.574612    5.324904    5.085260    -7.730255    -0.910285    7.807343    -15.991237    0.000000    0.000000    0.000000    
28.828043    166.282578    -60.543156    -4.128049    1.178498    30.431944    1.502698    -3.252957    -3.349031    -9.513294    -4.472124    -1.502207    14.176443    0.706593    0.884246    3.932268    -1.509511    -0.495840    13.820798    -4.557547    -15.434675    -25.451790    -26.385548    -39.848881    -13.217875    -40.342869    -97.160789    -33.269802    -42.758198    -38.231358    -13.982466    -0.834268    -8.978002    19.034479    18.505774    12.207554    14.202149    15.234955    -1.160428    9.185682    16.476744    14.196423    16.500591    8.982197    1.804854    -7.037510    10.175264    -14.923467    -17.439360    -12.253648    38.383018    0.000000    0.000000    0.000000    -2.931739    -10.735147    -3.523842    5.325060    5.084359    -7.774104    -0.905683    7.835361    -15.997243    0.000000    0.000000    0.000000    
28.884367    166.285370    -60.604954    -4.128234    1.207166    30.429354    1.481879    -3.267372    -3.352944    -9.485297    -4.481133    -1.502987    14.151524    0.695446    0.870991    3.988343    -1.465961    -0.500247    13.815383    -4.565321    -15.450455    -25.431705    -26.351156    -39.841503    -13.202126    -40.388584    -97.173126    -33.263275    -42.796120    -38.219009    -13.994219    -0.840236    -8.997573    19.079626    18.552536    12.202437    14.207748    15.254259    -1.125293    9.176695    16.492798    14.223488    16.461998    8.923784    1.796433    -7.045531    10.246418    -15.000879    -17.338840    -12.254742    38.417671    0.000000    0.000000    0.000000    -2.973066    -10.779394    -3.474677    5.334731    5.090837    -7.847668    -0.902871    7.863436    -16.009569    0.000000    0.000000    0.000000    
28.940948    166.284821    -60.672523    -4.127738    1.237114    30.431278    1.468348    -3.268056    -3.369539    -9.463856    -4.510839    -1.509992    14.160906    0.684520    0.869092    3.987437    -1.419707    -0.506648    13.798604    -4.563552    -15.441964    -25.410234    -26.331917    -39.852749    -13.183745    -40.408577    -97.163315    -33.250286    -42.801147    -38.219681    -14.001604    -0.840405    -9.011629    19.125208    18.635595    12.202144    14.154681    15.254130    -1.072166    9.195307    16.493612    14.294138    16.410501    8.846910    1.772624    -7.035830    10.340647    -15.077244    -17.309750    -12.362466    38.525887    0.000000    0.000000    0.000000    -3.020060    -10.835105    -3.444366    5.338924    5.127834    -7.826473    -0.893848    7.868847    -16.069664    0.000000    0.000000    0.000000    
28.991943    166.282516    -60.737591    -4.139503    1.256053    30.444542    1.463214    -3.270080    -3.389320    -9.438016    -4.530726    -1.517173    14.138572    0.678767    0.859616    4.034158    -1.378181    -0.508239    13.805249    -4.560472    -15.435858    -25.422310    -26.330509    -39.882122    -13.184832    -40.415798    -97.165993    -33.229893    -42.819210    -38.203537    -14.003593    -0.833373    -9.022175    19.162985    18.658880    12.196154    14.134496    15.262138    -1.029246    9.239417    16.504444    14.330091    16.377880    8.771785    1.724164    -7.028152    10.436110    -15.133162    -17.251425    -12.442553    38.603214    0.000000    0.000000    0.000000    -3.048854    -10.880142    -3.444323    5.344158    5.144234    -7.821751    -0.889832    7.895565    -16.105360    0.000000    0.000000    0.000000    
29.044107    166.272430    -60.803284    -4.140300    1.262390    30.451271    1.468272    -3.257735    -3.407877    -9.435312    -4.551111    -1.524928    14.131202    0.698676    0.850877    4.068472    -1.369597    -0.508738    13.819184    -4.551876    -15.441502    -25.408497    -26.314137    -39.898033    -13.135252    -40.472797    -97.122307    -33.303295    -42.789684    -38.254898    -14.002743    -0.832544    -9.014612    19.203354    18.654617    12.177611    14.140553    15.272147    -0.995300    9.185931    16.506195    14.358913    16.343521    8.727509    1.682439    -7.040188    10.483887    -15.137239    -17.375744    -12.577615    38.684464    0.000000    0.000000    0.000000    -3.083037    -10.913157    -3.433611    5.353565    5.177441    -7.796491    -0.861191    7.890315    -16.183016    0.000000    0.000000    0.000000    
